<svg width="17" height="20" viewBox="0 0 17 20" fill="none" xmlns="http://www.w3.org/2000/svg">
<path fill-rule="evenodd" clip-rule="evenodd" d="M11.646 2.99994L7.18685 5.59802V4.18896C4.62245 4.85504 2.7277 7.20416 2.7277 9.99994C2.7277 12.2527 3.95788 14.2154 5.77727 15.2413L3.85252 16.3513C1.9637 14.8891 0.74585 12.588 0.74585 9.99994C0.74585 6.09436 3.51903 2.84241 7.18685 2.14032V0.401855L11.646 2.99994ZM11.5692 4.75854C13.3886 5.78448 14.6188 7.74719 14.6188 9.99994C14.6188 12.7957 12.724 15.1448 10.1596 15.8109V14.4019L5.70046 16.9999L10.1596 19.598V17.8596C13.8274 17.1575 16.6006 13.9055 16.6006 9.99994C16.6006 7.41187 15.3828 5.11078 13.4939 3.64856L11.5692 4.75854Z" fill="#535374"/>
</svg>
