<svg width="17" height="20" viewBox="0 0 17 20" fill="none" xmlns="http://www.w3.org/2000/svg">
<path fill-rule="evenodd" clip-rule="evenodd" d="M2.04395 0C0.939331 0 0.0439453 0.895447 0.0439453 2V4C0.0439453 5.10455 0.939331 6 2.04395 6H2.11719C2.33325 7.42279 3.0116 8.50378 3.9375 9.33704C5.02026 10.3115 6.42188 10.9282 7.67261 11.4285C7.92444 11.5292 8.16882 11.6249 8.40515 11.7175C9.41052 12.1111 10.27 12.4477 10.9464 12.8761C11.5127 13.2347 11.8357 13.5858 11.9698 14.0013C10.8995 14.0403 10.0439 14.9202 10.0439 16V18C10.0439 19.1046 10.9393 20 12.0439 20H14.0439C15.1486 20 16.0439 19.1046 16.0439 18V16C16.0439 14.8954 15.1486 14 14.0439 14H14.0121C13.84 12.6842 12.9939 11.8054 12.0165 11.1864C11.1608 10.6445 10.0709 10.2194 9.05627 9.82361L9.05322 9.82245L9.01941 9.80927C8.81396 9.72906 8.61169 9.65015 8.41528 9.57153C7.16602 9.07184 6.06763 8.56348 5.27539 7.85046C4.73792 7.36676 4.33398 6.78247 4.15137 5.99719C5.20605 5.94135 6.04395 5.06848 6.04395 4V2C6.04395 0.895447 5.14856 0 4.04395 0H2.04395ZM4.04395 2H2.04395V4H4.04395V2ZM2.04395 14C0.939331 14 0.0439453 14.8954 0.0439453 16V18C0.0439453 19.1046 0.939331 20 2.04395 20H4.04395C5.14856 20 6.04395 19.1046 6.04395 18V16C6.04395 14.8954 5.14856 14 4.04395 14V12C4.04395 11.6412 3.81812 11.5105 3.47388 11.3112C3.09363 11.091 2.56873 10.7872 2.04395 10V14ZM4.04395 16H2.04395V18H4.04395V16ZM12.0439 16H14.0439V18H12.0439V16Z" fill="#535374"/>
</svg>
