<svg width="17" height="19" viewBox="0 0 17 19" fill="none" xmlns="http://www.w3.org/2000/svg">
<path fill-rule="evenodd" clip-rule="evenodd" d="M6.41296 0C5.86072 0 5.41296 0.447693 5.41296 1C5.41296 1.55231 5.86072 2 6.41296 2H7.41296V3.06189C3.46655 3.55396 0.412964 6.92041 0.412964 11C0.412964 15.0796 3.46655 18.446 7.41296 18.9381C7.7406 18.9789 8.07434 19 8.41296 19C12.8313 19 16.413 15.4183 16.413 11C16.413 6.92041 13.3594 3.55396 9.41296 3.06189V2H10.413C10.9652 2 11.413 1.55231 11.413 1C11.413 0.447693 10.9652 0 10.413 0H6.41296ZM7.41296 16.9171C7.73816 16.9716 8.07227 17 8.41296 17C11.7267 17 14.413 14.3137 14.413 11C14.413 7.68628 11.7267 5 8.41296 5C8.07227 5 7.73816 5.02838 7.41296 5.08295C4.5752 5.55902 2.41296 8.02698 2.41296 11C2.41296 13.973 4.5752 16.441 7.41296 16.9171ZM9.41296 8.10547C9.41296 7.55322 8.9657 7.10547 8.41296 7.10547C7.86023 7.10547 7.41296 7.55322 7.41296 8.10547V11.2964C7.41296 11.8645 7.73328 12.384 8.24304 12.6382L9.9657 13.5C10.4598 13.7468 11.0594 13.5466 11.3075 13.0527C11.5536 12.5586 11.3544 11.958 10.8602 11.7109L9.41296 10.9875V8.10547Z" fill="#535374"/>
</svg>
