<svg width="17" height="19" viewBox="0 0 17 19" fill="none" xmlns="http://www.w3.org/2000/svg">
<path fill-rule="evenodd" clip-rule="evenodd" d="M5.33133 1C5.33133 0.447693 5.77502 0 6.32225 0H10.2859C10.8332 0 11.2769 0.447693 11.2769 1C11.2769 1.55231 10.8332 2 10.2859 2H9.29502V3.06189C13.2056 3.55396 16.2315 6.92041 16.2315 11C16.2315 15.4183 12.6823 19 8.3041 19C7.96855 19 7.63784 18.9789 7.31317 18.9381V16.9171C7.63542 16.9716 7.96649 17 8.3041 17C11.5877 17 14.2496 14.3137 14.2496 11C14.2496 7.68628 11.5877 5 8.3041 5C7.96649 5 7.63542 5.02838 7.31317 5.08295V4V3.06189V2H6.32225C5.77502 2 5.33133 1.55231 5.33133 1ZM4.3404 5C3.79317 5 3.34948 5.44769 3.34948 6C3.34948 6.55231 3.79317 7 4.3404 7H5.33133C5.87856 7 6.32225 6.55231 6.32225 6C6.32225 5.44769 5.87856 5 5.33133 5H4.3404ZM3.34948 17C3.34948 16.4477 3.79317 16 4.3404 16H5.33133C5.87856 16 6.32225 16.4477 6.32225 17C6.32225 17.5523 5.87856 18 5.33133 18H4.3404C3.79317 18 3.34948 17.5523 3.34948 17ZM1.36763 8C0.820399 8 0.376709 8.44769 0.376709 9C0.376709 9.55231 0.820399 10 1.36763 10H3.34948C3.89671 10 4.3404 9.55231 4.3404 9C4.3404 8.44769 3.89671 8 3.34948 8H1.36763ZM0.376709 13C0.376709 12.4477 0.820399 12 1.36763 12H3.34948C3.89671 12 4.3404 12.4477 4.3404 13C4.3404 13.5523 3.89671 14 3.34948 14H1.36763C0.820399 14 0.376709 13.5523 0.376709 13Z" fill="#535374"/>
<path d="M8.3041 7.10547C8.85181 7.10547 9.29502 7.55322 9.29502 8.10547V10.9875L10.7291 11.7109C11.2188 11.958 11.4162 12.5586 11.1724 13.0527C10.9266 13.5466 10.3324 13.7468 9.84274 13.5L8.13572 12.6382C7.63058 12.384 7.31317 11.8645 7.31317 11.2964V8.10547C7.31317 7.55322 7.75638 7.10547 8.3041 7.10547Z" fill="#535374"/>
</svg>
